<?xml version="1.0" encoding="UTF-8"?>
<svg version="1.1" xmlns="http://www.w3.org/2000/svg" width="512" height="512">
<path d="M0 0 C1.27642365 0.00182281 2.55284729 0.00364563 3.86795044 0.00552368 C22.55615657 0.05044198 40.94428324 0.38730708 59.4375 3.3125 C61.15090576 3.57788574 61.15090576 3.57788574 62.89892578 3.84863281 C99.55938626 9.70015772 137.90941594 20.32056036 166.4375 45.3125 C167.19675781 45.97636719 167.95601563 46.64023438 168.73828125 47.32421875 C180.46804555 58.28415396 189.94420731 74.17380931 190.67578125 90.46484375 C191.18390128 112.22741936 183.76898833 128.05219765 169 143.93359375 C164.59039081 148.46333653 164.59039081 148.46333653 162.4375 150.3125 C161.7775 150.3125 161.1175 150.3125 160.4375 150.3125 C160.44026538 151.32464286 160.44303076 152.33678572 160.44587994 153.37959957 C160.51250596 178.017771 160.56179029 202.65593073 160.59293652 227.29417324 C160.60839929 239.20908754 160.62947763 251.12394229 160.66381836 263.03881836 C160.69373866 273.42493879 160.71307929 283.81101609 160.71976548 294.19717842 C160.72367326 299.69555219 160.73284497 305.19380258 160.75469017 310.69213676 C160.77509679 315.87048536 160.78132532 321.04866008 160.77682304 326.22704506 C160.77764637 328.12447938 160.78358705 330.02191968 160.79511642 331.91931915 C160.810126 334.51754507 160.80642299 337.11512151 160.79826355 339.71336365 C160.80700207 340.45755584 160.8157406 341.20174803 160.82474393 341.96849149 C160.75302469 350.46498836 158.23223867 357.39860716 152.40234375 363.5859375 C146.6461457 368.64406779 140.13765851 370.43249569 132.57103443 370.44392776 C131.61279579 370.44776891 130.65455715 370.45161005 129.66728097 370.4555676 C128.62254654 370.45470112 127.57781211 370.45383463 126.50141907 370.45294189 C125.38530925 370.45591302 124.26919944 370.45888414 123.11926812 370.4619453 C119.37157809 370.47063127 115.62392001 370.47214047 111.8762207 370.47363281 C109.19223378 370.47826106 106.50824975 370.48326521 103.82426453 370.48867798 C96.52660291 370.50224824 89.22894679 370.50828403 81.93127465 370.51268864 C77.37239163 370.51545337 72.81351073 370.51969116 68.25462914 370.52419281 C55.62624526 370.53638396 42.99786308 370.54668346 30.36947346 370.5500679 C29.5615392 370.55028747 28.75360494 370.55050703 27.92118783 370.55073325 C26.70642685 370.55106067 26.70642685 370.55106067 25.46712524 370.5513947 C23.82614664 370.55183816 22.18516805 370.55228473 20.54418945 370.55273438 C19.73021162 370.5529558 18.91623378 370.55317723 18.07758995 370.55340537 C4.89292395 370.55735206 -8.29168674 370.5748028 -21.47633138 370.5980939 C-35.02086879 370.62182712 -48.56537847 370.63427066 -62.10993701 370.63543582 C-69.71143629 370.63635149 -77.3128635 370.6420766 -84.91434288 370.66025543 C-91.38811341 370.67568307 -97.86178959 370.68076123 -104.33557501 370.67251733 C-107.63608936 370.66862015 -110.93637487 370.67113871 -114.23687363 370.68357468 C-117.82191196 370.69628894 -121.40646569 370.69041959 -124.99150085 370.67999268 C-126.02508167 370.68804908 -127.05866249 370.69610548 -128.12356395 370.70440602 C-137.75291144 370.6390736 -145.78467784 368.9758981 -152.87109375 362.21875 C-158.23723619 356.17099594 -159.71311616 350.30126868 -159.66688538 342.36810303 C-159.66617883 341.54968469 -159.66547228 340.73126635 -159.66474432 339.88804746 C-159.66136017 337.1359486 -159.65099995 334.3839176 -159.64086914 331.63183594 C-159.63735405 329.66248155 -159.63438663 327.69312613 -159.63192749 325.72377014 C-159.62624785 321.47746908 -159.61823215 317.2311807 -159.60890388 312.98488617 C-159.59574466 306.27011987 -159.59745323 299.55541112 -159.60313416 292.84063721 C-159.60405424 291.7079663 -159.60497432 290.57529539 -159.60592228 289.40830112 C-159.60889382 285.91933603 -159.61205889 282.43037115 -159.61523438 278.94140625 C-159.62803433 264.47824662 -159.63000739 250.01535814 -159.58666992 235.55224609 C-159.55518485 225.00960772 -159.5518532 214.46738225 -159.58142942 203.92473245 C-159.59598846 198.3446222 -159.59612419 192.76533765 -159.56202888 187.1852951 C-159.53022576 181.93509111 -159.53564166 176.68624209 -159.56953049 171.43606377 C-159.57534882 169.51037431 -159.56751203 167.58458732 -159.54493904 165.65902138 C-159.07661125 155.71487048 -159.07661125 155.71487048 -162.32238579 146.66291046 C-164.32516895 144.89134404 -166.23636715 143.61088444 -168.5625 142.3125 C-180.10695639 131.02377524 -189.32113652 116.76056615 -190.5625 100.3125 C-190.6140625 99.68730469 -190.665625 99.06210938 -190.71875 98.41796875 C-191.50187409 80.83030685 -184.20635565 65.11043691 -172.5625 52.3125 C-171.76199219 51.41917969 -170.96148437 50.52585938 -170.13671875 49.60546875 C-143.68826565 21.58969991 -103.167196 10.85587813 -66.5 4.5625 C-65.3553125 4.36374268 -64.210625 4.16498535 -63.03125 3.96020508 C-42.10441461 0.55842784 -21.16648721 -0.06283104 0 0 Z " fill="#000000" transform="translate(202.5625,45.6875)"/>
<path d="M0 0 C35.21005033 7.57684627 71.97629254 21.58118575 93.91015625 51.7265625 C100.08490364 61.39840981 104.09543922 71.54223011 105 83 C105.05414063 83.66515625 105.10828125 84.3303125 105.1640625 85.015625 C105.85476798 101.969305 98.25531412 117.97698382 87.3125 130.515625 C79.06720377 139.3737473 79.06720377 139.3737473 76 142 C75.34 142 74.68 142 74 142 C74.00460896 143.04729719 74.00921793 144.09459438 74.01396656 145.17362785 C74.12502722 170.67167243 74.20715859 196.16968559 74.25906086 221.66792107 C74.28482839 233.99875364 74.31995145 246.32942632 74.37719727 258.66015625 C74.42707633 269.40922502 74.45930156 280.15817796 74.47044247 290.90735924 C74.47695352 296.59756379 74.49222662 302.28743702 74.52865028 307.97753525 C74.56268059 313.33735555 74.57303861 318.69670919 74.56553841 324.05662727 C74.56690979 326.01977261 74.57680006 327.98293414 74.59602737 329.94598579 C74.79004679 350.78334467 74.79004679 350.78334467 67.24440479 358.88494682 C60.15521891 365.68147979 52.9448944 366.44133912 43.5196991 366.39440918 C42.36921202 366.40050028 41.21872493 366.40659139 40.03337461 366.41286707 C36.85314748 366.42660355 33.67324965 366.42695808 30.49300802 366.4214921 C27.05797583 366.41881624 23.62300908 366.43336416 20.18800354 366.44558716 C13.46319109 366.46662042 6.7384649 366.4711832 0.01362344 366.46939927 C-5.45428881 366.4680905 -10.92217421 366.47190165 -16.39008141 366.47932434 C-17.96645742 366.48142359 -19.54283345 366.48352119 -21.11920947 366.48561716 C-22.29621003 366.48718245 -22.29621003 366.48718245 -23.49698838 366.48877937 C-38.33061645 366.50767349 -53.16419505 366.50663418 -67.99783017 366.49981004 C-81.55747973 366.49423606 -95.11694027 366.51505524 -108.67654566 366.54817051 C-122.60988473 366.58193354 -136.54313331 366.59707253 -150.47651404 366.59245348 C-158.29488126 366.59021131 -166.11307381 366.59541474 -173.93140602 366.62034607 C-180.58817699 366.64139311 -187.24467753 366.64491774 -193.90145973 366.62604648 C-197.2953649 366.61690876 -200.68835519 366.61841096 -204.08228683 366.63640213 C-207.76823232 366.6545909 -211.45284273 366.6418454 -215.13874817 366.62145996 C-216.20209234 366.63397781 -217.2654365 366.64649566 -218.36100322 366.65939283 C-226.59810903 366.56194746 -233.26210984 364.39045806 -239.4375 358.7890625 C-239.953125 358.07492187 -240.46875 357.36078125 -241 356.625 C-241.53625 355.91601562 -242.0725 355.20703125 -242.625 354.4765625 C-245.74873104 348.85029693 -246.23727929 343.40627975 -246.125 337.0625 C-246.11597656 336.37865234 -246.10695312 335.69480469 -246.09765625 334.99023438 C-246.07438958 333.32666713 -246.03853167 331.66328369 -246 330 C-244.33848687 329.99641747 -244.33848687 329.99641747 -242.64340782 329.99276257 C-215.70293062 329.9339926 -188.76254303 329.85812526 -161.82216454 329.76428509 C-148.7940489 329.71930152 -135.76596076 329.67989272 -122.73779297 329.65356445 C-111.38369319 329.63060517 -100.02968023 329.59723025 -88.67564929 329.55129844 C-82.66265293 329.5273384 -76.6497427 329.50862781 -70.63669968 329.50238609 C-64.97815174 329.49634789 -59.31982428 329.47639357 -53.66135788 329.44572449 C-51.58369476 329.43692402 -49.50600285 329.43322582 -47.42832184 329.43499184 C-44.59253298 329.43664132 -41.7574188 329.41997284 -38.92172241 329.39872742 C-37.68727074 329.40599878 -37.68727074 329.40599878 -36.42788064 329.41341704 C-31.55519067 329.35313287 -28.23019051 328.67397109 -24 326 C-19.28378118 320.77391968 -18.85858152 317.46900483 -18.89561462 310.61312866 C-18.89632117 309.73501703 -18.89702772 308.8569054 -18.89775568 307.95218432 C-18.9011465 304.99202248 -18.91150992 302.03192324 -18.92163086 299.07177734 C-18.92514509 296.95641155 -18.92811278 294.84104478 -18.93057251 292.72567749 C-18.93625675 288.16069328 -18.94427481 283.59572081 -18.95359612 279.03074265 C-18.96674578 271.81170884 -18.96504914 264.59272862 -18.95936584 257.37368774 C-18.95844576 256.15634614 -18.95752568 254.93900454 -18.95657772 253.6847738 C-18.95360592 249.93438033 -18.95044074 246.18398705 -18.94726562 242.43359375 C-18.93446664 226.88189994 -18.93247072 211.33045811 -18.97583008 195.77880859 C-19.0073205 184.44657643 -19.0106404 173.11472843 -18.98107058 161.7824856 C-18.96651313 155.78372313 -18.96637097 149.78572872 -19.00047112 143.78702927 C-19.03228685 138.14125384 -19.02684529 132.49673817 -18.99296951 126.85098648 C-18.98715348 124.78058836 -18.99497861 122.71009942 -19.01756096 120.63981628 C-19.17716547 104.977353 -19.17716547 104.977353 -16.24780464 100.05673599 C-14.26677243 98.05699773 -12.33398497 96.55501614 -10 95 C4.6512564 79.77650125 11.54427341 60.09685953 11.42016602 39.2800293 C11.03935779 24.97842966 5.98524641 12.79430482 0 0 Z " fill="#000000" transform="translate(395,100)"/>
</svg>
